<?xml version="1.0" encoding="utf-8"?>
<!-- Generator: Adobe Illustrator 21.0.0, SVG Export Plug-In . SVG Version: 6.00 Build 0)  -->
<svg version="1.1" id="Layer_1" xmlns="http://www.w3.org/2000/svg" xmlns:xlink="http://www.w3.org/1999/xlink" x="0px" y="0px"
	 viewBox="0 0 1090 500" style="enable-background:new 0 0 1090 500;" xml:space="preserve">
<style type="text/css">
	.st0{fill:#FCFCFC;}
	.st1{fill:url(#SVGID_1_);}
</style>
<g>
	<g>
		<path class="st0" d="M592.4,246.7c-0.6-1.9-1.1-4-1.9-6c-5-12.8-10.1-25.6-15.2-38.5c-0.5-1.2-1-2.5-1.5-3.7
			c-1.5-3.4-1-6.4,2.6-7.9c3.7-1.5,6,0.6,7.3,4c4.7,11.9,9.4,23.8,14.1,35.7c6.6,16.7,13.2,33.4,19.8,50.1c0.6,1.5,0.7,3.7,2.7,3.8
			c2.5,0.2,2.5-2.4,3.1-4c10.9-27.9,21.7-55.7,32.5-83.6c0.3-0.8,0.6-1.5,0.9-2.3c0.9-2.3,1.9-4.8,4.9-3.6c3,1.2,1.9,3.8,1,6
			c-12.5,32-25,64.1-37.5,96.1c-1.3,3.4-2.9,6.6-7.2,6.5c-4.1,0-5.5-3.3-6.8-6.4c-4.1-10.2-8.1-20.4-12.2-30.5
			c-0.6-1.5-0.7-3.9-2.5-3.9c-2.3,0-2.2,2.6-2.8,4.1c-4,10-7.9,20.1-11.7,30.2c-1.3,3.4-2.9,6.5-7.2,6.5c-4.1,0-5.5-3.2-6.8-6.3
			c-12.3-31-24.6-62.1-36.8-93.2c-0.3-0.8-0.5-1.6-0.8-2.4c-1-3-0.1-5.4,2.6-6.7c3-1.4,5.7-0.3,7,2.8c2.4,5.5,4.5,11.1,6.7,16.6
			c9.3,23.5,18.5,47,27.8,70.5c0.6,1.5,0.6,3.7,2.7,3.8c2.1,0.1,2.2-2.1,2.8-3.6c3.7-9.8,7.4-19.6,11-29.4
			C591.7,249.9,592,248.4,592.4,246.7z"/>
		<path class="st0" d="M167.8,268.6c0,4.8,0,9.7,0,14.5c0,3.2-1.1,6-3.8,7.7c-17.9,11.8-52.2,14.9-71.2,1
			c-16-11.8-22.2-28.4-21.7-47.5c0.6-21,8.2-39,27.6-49.3c18.4-9.8,37.4-9.7,55.9,0.3c3.5,1.9,7,4.2,8.7,8c1.1,2.5,1.4,5.3-1.5,7
			c-2.8,1.7-4.9,0.3-6.4-1.9c-9.2-13.6-22.7-16-37.5-13.5c-16.2,2.8-26.3,13.5-30.9,28.6c-5.7,18.5-4.9,36.9,5.9,53.7
			c6.9,10.7,17.4,15.7,29.8,16.7c9.9,0.7,19.6-0.7,28.7-5c3.8-1.8,5.5-4.4,5.5-8.6c-0.1-8.8,0-17.7,0-26.5c0-2.7,1-4.9,3.7-6
			c1.9-0.8,3.6-0.3,5.1,0.9c1.7,1.4,2.1,3.3,2.1,5.4C167.8,258.9,167.8,263.8,167.8,268.6C167.8,268.6,167.8,268.6,167.8,268.6z"/>
		<path class="st0" d="M930.7,232.7c0,19.3,0,38.7,0,58c0,6.3-1.3,7.7-7.6,7.6c-11.5-0.3-23,1-34.3-1.7
			c-24.3-5.8-34.5-29.6-29.4-50.7c4.6-18.9,18.2-30.1,37.7-31.4c6.5-0.4,13-0.4,19.5-0.2c3.8,0.1,4.9-1.3,4.8-4.9
			c-0.2-11.5-0.1-23,0-34.5c0-1.7,0-3.3,0.3-5c0.4-2.3,2-3.4,4.2-3.5c2-0.1,3.6,1,4.2,2.9c0.5,1.6,0.6,3.3,0.6,4.9
			C930.8,193.7,930.7,213.2,930.7,232.7z M921.4,255.7c0-10.7-0.1-21.3,0.1-32c0.1-3.5-1-4.7-4.6-4.5c-5.3,0.3-10.7,0-16,0.1
			c-7.5,0.2-14.4,2.4-20.1,7.5c-11.5,10.3-15.3,31.2-8.6,46.7c5.4,12.5,14.9,19.2,28.6,19.7c4.8,0.2,9.7-0.1,14.5,0.1
			c4.7,0.3,6.2-1.9,6.1-6.2C921.3,276.7,921.4,266.2,921.4,255.7z"/>
		<path class="st0" d="M391.9,300.9c-8.6-0.4-16.9-1.7-23.9-7.3c-2.7-2.2-5-4.6-2.4-7.8c2.7-3.3,5.3-0.8,7.6,1.3
			c8.8,8,19,9.3,29.8,5.5c14.1-5,18.1-21.3,8.4-33.1c-4.3-5.3-10.1-8.6-16-11.8c-5.6-3-11.2-5.7-16.5-9.4
			c-10.1-7-14.1-16.7-11.9-28.6c2-10.8,9.6-16.9,19.7-19.7c11.6-3.2,23-2.8,33.8,3.3c0.9,0.5,1.7,1,2.5,1.7c2.5,2.3,4.7,5,1.8,8.1
			c-3,3.2-5.9,1.1-7.9-1.6c-6.3-8.6-20.8-9.5-29.2-5.5c-11.6,5.6-14.3,19.9-5.3,29.2c4.3,4.5,9.7,7.5,15,10.7
			c6,3.6,12.1,7,17.6,11.4c10.5,8.4,14.6,20.1,11.3,31.9c-3.4,11.9-13.4,19.8-26.8,21.3C396.9,300.6,394.4,300.7,391.9,300.9z"/>
		<path class="st0" d="M263.9,256.5c-0.1,25.7-17.9,43.8-43.1,43.7c-24.9-0.1-42.2-18.1-42.3-43.9c-0.1-25.9,17.5-44,42.7-43.9
			C246.3,212.5,263.9,230.7,263.9,256.5z M253.1,258.6c0-7.4-0.5-12.5-2-17.5c-4.2-14.1-14.6-23-28.1-23.8
			c-14.1-0.8-25.5,6.5-30.8,20.7c-5.1,13.5-4.7,27.2,1.6,40.3c8.3,17.4,30.9,22.8,45.8,11C250,280.9,253,269.2,253.1,258.6z"/>
		<path class="st0" d="M746,256.4c0,25.9-17.6,43.9-42.8,43.9c-25-0.1-42.4-18-42.5-43.7c0-26.1,17.3-44,42.5-44.1
			C728.5,212.4,746,230.4,746,256.4z M703.1,295.4c11-0.2,19.7-4.3,25.2-13.3c9.7-15.9,10.1-32.8,1.5-49
			c-11.2-21.1-40.1-21.5-52.4-1c-8.6,14.4-8.5,29.9-1.9,45.1C680.8,289.1,690.4,295.1,703.1,295.4z"/>
		<path class="st0" d="M786.3,256.8c8.7,10.9,17,21.3,25.3,31.7c0.7,0.9,1.5,1.8,2.2,2.7c1.7,2.4,1.8,4.8-0.5,6.7
			c-2.3,1.8-4.8,1.2-6.7-1c-3-3.6-5.9-7.2-8.8-10.9c-6.8-8.5-13.5-16.9-20.2-25.4c-1.5-1.9-3.4-4-2.1-6.7c1.2-2.6,3.9-2,6.1-2.3
			c2.5-0.2,5-0.2,7.4-0.7c8.6-1.8,12.9-6.9,13-15.1c0.1-8.7-3.9-13.7-12.8-15.8c-6.1-1.4-12.3-0.8-18.4-0.7c-4,0.1-4,3.2-4,6.2
			c0,21.7,0,43.3,0,65c0,1.3,0.1,2.7-0.1,4c-0.3,2.7-2,4.3-4.6,4.3c-2.6,0-4.3-1.5-4.5-4.4c-0.1-1.5-0.1-3-0.1-4.5
			c0-22.8,0-45.6,0-68.5c0-6.4,0.9-7.4,7.2-7.2c9.8,0.2,19.7-0.9,29.4,1.1c12.3,2.5,18.8,10.7,17.7,22.6c-0.8,8.8-6.2,13.7-14,16.3
			C794.4,255.4,790.6,255.9,786.3,256.8z"/>
		<path class="st0" d="M275.2,231.6c0-18.8,0-37.7,0-56.5c0-1.3,0-2.7,0.1-4c0.3-2.8,1.7-4.8,4.7-4.8c3,0.1,4.3,2.2,4.6,5
			c0.1,1.3,0,2.7,0,4c0,37,0,74,0,111c0,6.9,0.1,6.9,7,7c2.5,0,5,0,7.5,0c1.8,0,2.9,0.8,2.9,2.7c0,1.6-1.1,2.3-2.7,2.3
			c-6.5,0-13,0.2-19.5-0.2c-4.5-0.3-4.7-4.1-4.7-7.5c0-13.3,0-26.7,0-40C275.2,244.3,275.2,237.9,275.2,231.6z"/>
		<path class="st0" d="M825.6,232.3c0-19.1,0-38.3,0-57.4c0-1.5,0-3,0.1-4.5c0.3-2.5,1.9-3.9,4.3-4c2.5-0.1,4.1,1.4,4.6,3.7
			c0.3,1.6,0.2,3.3,0.2,5c0,36.8,0,73.6,0,110.3c0,7.9,0,7.9,7.7,7.9c2.3,0,4.7,0,7,0c1.8,0,3,0.9,3,2.6c0,1.4-1.1,2.3-2.7,2.3
			c-6.5,0-13,0.2-19.5-0.2c-4.5-0.2-4.7-3.9-4.7-7.4C825.6,271.2,825.6,251.8,825.6,232.3z"/>
		<path class="st0" d="M439.6,232.6c0-19.3,0-38.6,0-58c0-1.5,0-3,0.2-4.5c0.3-2.3,1.8-3.6,4-3.8c2.5-0.3,4.2,1.1,4.8,3.4
			c0.4,1.2,0.3,2.6,0.3,4c0,39.1,0,78.3,0,117.4c0,1.2,0.1,2.4-0.1,3.5c-0.5,2.7-2.2,4.2-4.8,4c-2.4-0.1-4-1.6-4.2-4.1
			c-0.1-1.5-0.1-3-0.1-4.5C439.6,271,439.6,251.8,439.6,232.6z"/>
		<path class="st0" d="M494.4,213.5c1.6,0.7,3.2,1.6,1.8,3.7c-0.7,1.1-1.7,2-2.7,2.9c-9.7,9.4-19.3,18.8-29.1,28.1
			c-2.5,2.4-2.5,3.9-0.3,6.4c9.7,10.7,19.2,21.6,28.8,32.5c1,1.1,2,2.3,2.9,3.4c2,2.3,2.7,4.8,0.3,7.1c-2.7,2.5-5.2,1.2-7.3-1.2
			c-2.3-2.6-4.6-5.2-6.9-7.9c-8.7-9.9-17.3-19.8-26.1-29.6c-3.3-3.6-3.1-6.4,0.4-9.7c11.6-11,23-22.2,34.5-33.3
			C491.7,214.9,492.7,213.7,494.4,213.5z"/>
		<path class="st0" d="M518.7,256.8c0,11.8,0.1,23.7,0,35.5c0,5.2-3.4,8-6.9,5.9c-2.4-1.4-2.5-3.8-2.5-6.1c0-10.3,0-20.7,0-31
			c0-12.8,0-25.7,0-38.5c0-1.3,0-2.7,0.1-4c0.2-2.8,1.5-5,4.5-5c3.2,0,4.8,2.2,4.8,5.2c0.1,5.7,0,11.3,0.1,17
			C518.7,242.8,518.7,249.8,518.7,256.8z"/>
		<path class="st0" d="M520.8,185c0.1,3.7-3.2,7.2-6.8,7.2c-3.6,0-7.2-3.3-7-6.9c0.2-4,2.6-6.4,6.5-6.8
			C517.2,178,520.7,181.2,520.8,185z"/>
		<g>
			<path class="st0" d="M354.2,165.7c-7-1.7-14.8-1.4-21.3,1.9c-8.5,4.2-12.4,12.9-13,22.1c-0.2,3.2-0.1,6.4,0,9.6
				c0.1,3.1,0,6.3,0,9.4c0,1.6,0,3.3,0,4.9c0,0.3-0.3,0.6-0.6,0.6h-12.8c-0.3,0-0.6,0.3-0.6,0.6v3.7c0,0.3,0.3,0.6,0.6,0.6
				c0,0,13.1,0,12.7,0c-0.4,0-0.4,0-0.4,0c0.5,0.3,1,1.2,1,1.8c0,0,0,24.2,0,36.6c0,3.1,0,6.2,0,9.3c0,6.6,0,13.2,0,19.8
				c0,1.7,0,3.4,0,5.2c0,0.9,0,1.8,0.1,2.6c0.4,2.8,3.2,4.7,5.9,3.9c4.2-1.1,3.3-7.3,3.3-10.9c0-6.6,0-13.3,0-19.9
				c0-15.9-0.1-31.9-0.1-47.8c0-0.3,0.3-0.6,0.6-0.6h21.6c0.3,0,0.6-0.3,0.6-0.6v-3.7c0-0.3-0.3-0.6-0.6-0.6h-21.6
				c-0.3,0-0.6-0.3-0.6-0.6c0-5.9,0-11.8,0.1-17.8c0-5.2-0.2-10.9,1.9-15.9c1.5-3.6,4.2-6.5,7.7-8.2c4.1-2,8.8-2.2,13.3-1.5
				c1.9,0.3,5.1,1.7,5.8-1.1C358.4,166.8,355.9,166.2,354.2,165.7z"/>
		</g>
	</g>
	<linearGradient id="SVGID_1_" gradientUnits="userSpaceOnUse" x1="79.8547" y1="331.2675" x2="1018.8547" y2="331.2675">
		<stop  offset="0" style="stop-color:#27A342"/>
		<stop  offset="0.2297" style="stop-color:#5CF56E"/>
		<stop  offset="0.3811" style="stop-color:#4992FC"/>
		<stop  offset="1" style="stop-color:#FFFFFF"/>
	</linearGradient>
	<rect x="79.9" y="327.3" class="st1" width="939" height="8"/>
</g>
</svg>
